<svg width="220" height="526" viewBox="0 0 220 526" fill="none" xmlns="http://www.w3.org/2000/svg">
<path d="M35.0815 509.921L59.2255 509.92H59.2266C63.3072 509.92 67.2206 511.541 70.1061 514.427C72.9915 517.312 74.6128 521.225 74.613 525.306V525.806L35.0823 525.807L35.0815 509.921Z" fill="#2F2E41"/>
<path d="M87.8235 505.615L111.817 508.305L111.818 508.305C115.873 508.76 119.582 510.808 122.128 513.997C124.674 517.186 125.848 521.255 125.394 525.311L125.338 525.807L86.0536 521.403L87.8235 505.615Z" fill="#2F2E41"/>
<path d="M99.0076 165.384H51.2801C50.4251 165.383 49.6055 165.043 49.0009 164.438C48.3964 163.834 48.0563 163.014 48.0553 162.159V114.431C48.0563 113.576 48.3964 112.757 49.0009 112.152C49.6055 111.548 50.4251 111.208 51.2801 111.207H99.0076C99.8626 111.208 100.682 111.548 101.287 112.152C101.891 112.757 102.231 113.576 102.232 114.431V162.159C102.231 163.014 101.891 163.834 101.287 164.438C100.682 165.043 99.8626 165.383 99.0076 165.384V165.384Z" fill="#E5E5E5"/>
<path d="M98.837 253.744H51.1094C50.2545 253.743 49.4348 253.403 48.8303 252.799C48.2257 252.194 47.8856 251.374 47.8846 250.519V202.792C47.8856 201.937 48.2257 201.117 48.8303 200.513C49.4348 199.908 50.2545 199.568 51.1094 199.567H98.837C99.6919 199.568 100.512 199.908 101.116 200.513C101.721 201.117 102.061 201.937 102.062 202.792V250.519C102.061 251.374 101.721 252.194 101.116 252.799C100.512 253.403 99.6919 253.743 98.837 253.744Z" fill="#E5E5E5"/>
<path d="M88.2139 350.489C91.776 350.489 94.6636 347.601 94.6636 344.039C94.6636 340.477 91.776 337.59 88.2139 337.59C84.6519 337.59 81.7643 340.477 81.7643 344.039C81.7643 347.601 84.6519 350.489 88.2139 350.489Z" fill="#E5E5E5"/>
<path d="M111.433 350.489C114.995 350.489 117.882 347.601 117.882 344.039C117.882 340.477 114.995 337.59 111.433 337.59C107.871 337.59 104.983 340.477 104.983 344.039C104.983 347.601 107.871 350.489 111.433 350.489Z" fill="#E5E5E5"/>
<path d="M134.651 350.489C138.214 350.489 141.101 347.601 141.101 344.039C141.101 340.477 138.214 337.59 134.651 337.59C131.089 337.59 128.202 340.477 128.202 344.039C128.202 347.601 131.089 350.489 134.651 350.489Z" fill="#E5E5E5"/>
<path d="M22.4675 302.92C23.8167 301.571 24.8538 299.943 25.5057 298.15C26.1577 296.358 26.4086 294.444 26.2409 292.543C26.0731 290.643 25.4907 288.802 24.5347 287.152C23.5787 285.501 22.2724 284.08 20.7077 282.988L33.3033 238.359L10.3391 245.662L1.89881 286.923C0.239553 289.673 -0.353285 292.936 0.232641 296.094C0.818567 299.252 2.54254 302.086 5.07789 304.057C7.61324 306.029 10.7838 307.003 13.9888 306.793C17.1938 306.583 20.2106 305.205 22.4675 302.92V302.92Z" fill="#FFB7B7"/>
<path d="M28.9971 275.565C28.5869 275.643 28.1696 275.679 27.752 275.67L5.72237 275.229C4.89331 275.212 4.07732 275.019 3.32866 274.662C2.58001 274.306 1.91587 273.794 1.38045 273.161C0.845031 272.528 0.450615 271.788 0.223436 270.99C-0.00374334 270.193 -0.0584858 269.356 0.0628831 268.536L22.4105 117.545C23.0776 113.177 25.2846 109.193 28.6329 106.31C31.9811 103.428 36.2498 101.838 40.6677 101.828C43.4574 101.835 46.209 102.476 48.7147 103.702C51.2204 104.928 53.4147 106.708 55.132 108.906C56.8493 111.104 58.0446 113.664 58.6276 116.392C59.2107 119.12 59.1663 121.945 58.4978 124.653L42.6573 188.81L33.6741 270.471C33.5438 271.709 33.0188 272.873 32.1767 273.79C31.3345 274.707 30.2198 275.329 28.9971 275.565V275.565Z" fill="#3F3D56"/>
<path d="M38.2084 513.923H50.4684L56.3014 466.635L38.2064 466.636L38.2084 513.923Z" fill="#FFB7B7"/>
<path d="M90.4854 509.941L102.668 511.307L113.735 464.964L95.7534 462.948L90.4854 509.941Z" fill="#FFB7B7"/>
<path d="M26.702 250.773C26.702 250.773 9.89399 287.982 24.7368 312.15L33.5796 500.318H53.8828L73.5796 348.318L108.58 393.318L87.256 498.346L112.087 499.74L146.58 393.318C146.58 393.318 120.082 275.969 111.331 273.144L105.58 246.318L26.702 250.773Z" fill="#2F2E41"/>
<path d="M19.2213 283.44C19.2213 283.44 4.07962 300.818 44.0796 306.818C84.0796 312.818 126.08 303.818 127.08 291.818C128.08 279.818 19.2213 283.44 19.2213 283.44Z" fill="#CBCBCB"/>
<path d="M219.738 67.8712C219.676 69.5675 219.243 71.2296 218.469 72.7405C217.695 74.2513 216.6 75.5742 215.259 76.6157C213.919 77.6573 212.367 78.3923 210.711 78.769C209.056 79.1457 207.339 79.1549 205.68 78.796L190.56 100.6L175.068 94.6439L196.853 64.1517C197.641 61.4045 199.409 59.0416 201.822 57.5109C204.236 55.9802 207.127 55.388 209.948 55.8465C212.768 56.3049 215.323 57.7823 217.128 59.9985C218.932 62.2147 219.861 65.0159 219.738 67.8712V67.8712Z" fill="#FFB7B7"/>
<path d="M91.867 95.9248L70.4896 86.2538L43.1 88.2118C43.1 88.2118 10.0796 126.818 23.0796 163.818L15.0796 292.818C66.0796 306.818 89.2627 280.56 126.08 291.818L114.708 148.449L91.867 95.9248Z" fill="#3F3D56"/>
<path d="M77.5796 105.318L91.867 95.9248C91.867 95.9248 111.713 92.9248 119.647 100.621C119.647 100.621 146.573 102.875 153.076 109.597L160.237 111.211L184.023 80.4089L198.58 88.3181L177.58 145.318L114.708 148.449L77.5796 105.318Z" fill="#3F3D56"/>
<path d="M82.5095 75.4051C98.8624 66.4658 104.872 45.9625 95.933 29.6096C86.9937 13.2566 66.4903 7.24671 50.1374 16.186C33.7845 25.1253 27.7746 45.6287 36.7139 61.9816C45.6532 78.3345 66.1566 84.3445 82.5095 75.4051Z" fill="#FFB7B7"/>
<path d="M37.1363 19.4133C43.1597 8.57972 50.6867 1.56499 63.0796 1.81816C75.4725 2.07133 86.1925 1.58141 91.7684 12.652C93.2422 9.89274 93.9802 6.80029 93.9113 3.67286C95.5951 4.76589 96.9221 6.32786 97.7287 8.16609C98.5353 10.0043 98.7863 12.0384 98.4506 14.0176C99.5352 13.3823 100.443 12.485 101.091 11.4078C101.739 10.3307 102.106 9.10815 102.158 7.8523C106.294 9.22876 107.37 15.0575 105.277 18.8812C103.184 22.705 99.0798 24.916 95.1419 26.7852C91.204 28.6544 93.022 38.5404 90.4505 42.0601C88.6558 44.5165 87.835 47.5269 86.6257 50.3184C86.5751 50.4287 86.4888 50.5187 86.3809 50.574C83.6081 52.1201 81.858 54.8826 82.3475 58.0193C82.4055 58.2545 82.3918 58.5016 82.308 58.7289C78.7979 65.3419 75.0088 72.2609 68.6462 76.2069C63.5408 79.2899 57.4256 80.2352 51.6276 78.8376C45.1241 77.2827 39.5017 72.9709 35.4476 67.6532C31.3934 62.3355 28.7856 56.0507 26.8261 49.6575C25.0878 43.9861 23.8237 37.9222 25.2019 32.1527C26.5801 26.3832 31.249 21.0407 37.1641 20.5949" fill="#2F2E41"/>
</svg>
